<svg xmlns="http://www.w3.org/2000/svg" viewBox="0 0 511.81 499.02"><defs><style>.a{fill:#b30b00;}.b{fill:#fff;}</style></defs><title>acrobat-pro</title><path class="a" d="M90.93,0h330a90.87,90.87,0,0,1,90.93,90.93V408.09A90.87,90.87,0,0,1,420.88,499H90.93C41.37,498.82,0,459.05,0,408.09V90.73C0,39.77,39.77,0,90.93,0Z"/><path class="b" d="M408.09,288.38C384.11,262.8,318.76,274,303,275.59c-22.38-22.38-38.17-47.76-44.57-57.36,8-24,14.39-51,14.39-76.54,0-24-9.59-47.76-35-47.76a25.51,25.51,0,0,0-22.38,12.79c-11.19,19.18-6.4,57.36,11.19,97.13C217,232.62,201.05,275.59,182.06,309c-25.58,9.59-81.34,35-86.13,63.75-1.6,8,1.6,17.58,8,22.38,6.4,6.4,14.39,8,22.38,8,33.38,0,67-46.16,90.94-87.73,19.18-6.39,49.36-16,79.74-20.78,35,32,66.94,36.57,82.93,36.57,22.39,0,30.38-9.59,33.38-17.59C417.48,306,414.49,294.78,408.09,288.38Zm-22.38,16c-1.6,6.39-9.59,12.79-24,9.59-17.59-4.79-33.38-12.79-46.17-24,11.19-1.6,38.17-4.8,57.36-1.6C379.31,290,387.31,294.78,385.71,304.37ZM231,113.11a8.78,8.78,0,0,1,8-4.79c8,0,9.59,9.59,9.59,17.58-1.6,19.19-4.79,39.77-11.19,57.36C224.63,148.29,226.23,122.71,231,113.11Zm-1.6,180.07c8-14.39,17.58-41.37,20.78-51,8,14.39,22.38,30.37,28.78,38.17C280.59,279,251.81,285.18,229.43,293.18ZM175.27,330c-22.19,35-43,57.36-55.76,57.36-1.6,0-4.8,0-6.4-1.6-1.59-3.2-3.19-6.4-1.59-9.59C113.11,363.33,138.7,345.74,175.27,330Z"/></svg>