<svg viewBox="0 0 512 512" xmlns="http://www.w3.org/2000/svg" fill-rule="evenodd" clip-rule="evenodd" stroke-linejoin="round" stroke-miterlimit="2"><path d="M0 6.571L5.143 4l9 5.143h15.428V31l-1.285 1.286H3.857A3.857 3.857 0 010 28.429V6.571z" fill="url(#prefix___Radial1)" fill-rule="nonzero" transform="translate(16 16) scale(13.3333)"/><path d="M14.093 4.548a3.858 3.858 0 002.268.738h15.782A3.857 3.857 0 0136 9.143v19.286a3.857 3.857 0 01-3.857 3.857h-3.857V13.643a3.214 3.214 0 00-3.215-3.214h-13.5a3.857 3.857 0 01-2.314-.772L6.171 7.343a3.853 3.853 0 00-2.314-.772H0a3.857 3.857 0 013.857-3.857h6.46c.815 0 1.61.259 2.269.738l1.507 1.096z" fill="url(#prefix___Linear2)" transform="translate(16 16) scale(13.3333)"/><defs><radialGradient id="prefix___Radial1" cx="0" cy="0" r="1" gradientUnits="userSpaceOnUse" gradientTransform="matrix(55.1798 0 0 58.5668 32.048 -15.432)"><stop offset="0" stop-color="#6d4aff"/><stop offset=".56" stop-color="#6d4aff"/><stop offset="1" stop-color="#ff50c3"/></radialGradient><linearGradient id="prefix___Linear2" x1="0" y1="0" x2="1" y2="0" gradientUnits="userSpaceOnUse" gradientTransform="rotate(47.912 14.075 -6.893) scale(66.588)"><stop offset="0" stop-color="#7341ff"/><stop offset=".36" stop-color="#b487ff"/><stop offset="1" stop-color="#ffc8ff"/></linearGradient></defs></svg>