<svg viewBox="0 0 512 512" xmlns="http://www.w3.org/2000/svg" fill-rule="evenodd" clip-rule="evenodd" stroke-linejoin="round" stroke-miterlimit="2"><g transform="translate(8 8) scale(10.3333)"><clipPath id="prefix__a"><path d="M0 0h48v48H0z"/></clipPath><g clip-path="url(#prefix__a)"><path d="M3.857 2.714A3.857 3.857 0 000 6.571v1.286l1.286 1.286V31L27 18.143l1.286 1.286H36V6.571a3.857 3.857 0 00-3.857-3.857H3.857z" fill="url(#prefix___Linear2)" fill-rule="nonzero" transform="scale(1.33333)"/><path d="M25.255 7.857H0v20.725a3.704 3.704 0 003.704 3.704h13.01l6.752-10.127a4.384 4.384 0 014.061-2.73h.759v-8.541a3.031 3.031 0 00-3.031-3.031z" fill="url(#prefix___Radial3)" fill-rule="nonzero" transform="scale(1.33333)"/><path d="M22.285 43.048v-1.844c0-1.023.367-2.012 1.032-2.788l8.663-10.11c.179-.246.377-.477.592-.691l-.592.69a5.816 5.816 0 00-1.123 3.446v11.297h-8.572z" fill="#b8d7ff" fill-rule="nonzero"/><path d="M35.315 36.852h1.749c.07.301.248.568.501.753.25.187.559.283.874.267.79 0 1.313-.432 1.313-1.065 0-.635-.543-.987-1.619-.987h-.694v-1.428h.604c1.04 0 1.465-.383 1.465-.95 0-.569-.461-.96-1.1-.96a1.094 1.094 0 00-.781.26c-.218.186-.35.447-.375.73h-1.69c.062-.996.853-2.424 2.835-2.424 1.592 0 2.694.9 2.694 2.167 0 .408-.127.805-.371 1.132a1.93 1.93 0 01-.973.694v.024a1.92 1.92 0 011.582 1.947c0 1.373-1.268 2.279-2.906 2.279-1.74.009-2.982-.971-3.108-2.44zM44.387 31.184h1.273v7.992h-1.644v-6.13l-1.581 1.065v-1.614l1.952-1.313z" fill="#8f69ff" fill-rule="nonzero"/></g></g><defs><radialGradient id="prefix___Radial3" cx="0" cy="0" r="1" gradientUnits="userSpaceOnUse" gradientTransform="matrix(57.7522 0 0 51.6096 27.204 -12.523)"><stop offset="0" stop-color="#6d4aff"/><stop offset=".5" stop-color="#6d4aff"/><stop offset=".99" stop-color="#06b8ff"/><stop offset="1" stop-color="#06b8ff"/></radialGradient><linearGradient id="prefix___Linear2" x1="0" y1="0" x2="1" y2="0" gradientUnits="userSpaceOnUse" gradientTransform="rotate(-124.54 20.916 3.074) scale(37.0351)"><stop offset="0" stop-color="#bfe8ff"/><stop offset=".31" stop-color="#bfabff"/><stop offset="1" stop-color="#7341ff"/></linearGradient></defs></svg>